# xmcd
#
# Track frame offsets:
# 150
# 16353
# 31415
# 47716
# 63175
# 80891
#
# Disc length: 1289 seconds
#
#
# Revision: 0
# Processed by: cddbd v1.5.1PL0 Copyright (c) Steve Scherf et al.
# Submitted via: FreeRIP 2.50 
#
DISCID=47050706
DTITLE=Ryan Shupe - Ryan Shupe Sampler
DYEAR=2005
DGENRE=Country
TTITLE0=Even Superman
TTITLE1=New Emotion
TTITLE2=Dream Big
TTITLE3=Simplify
TTITLE4=Would You Love Me
TTITLE5=Banjo Boy
EXTD=
EXTT0=
EXTT1=
EXTT2=
EXTT3=
EXTT4=
EXTT5=
PLAYORDER=
